<mxfile host="app.diagrams.net" agent="Mozilla/5.0 (Windows NT 10.0; Win64; x64) AppleWebKit/537.36 (KHTML, like Gecko) Chrome/125.0.0.0 Safari/537.36" version="24.8.4">
  <diagram name="Page-1" id="A49GbQp_GIPjaX4XFUxE">
    <mxGraphModel dx="2085" dy="614" grid="1" gridSize="10" guides="1" tooltips="1" connect="1" arrows="1" fold="1" page="1" pageScale="1" pageWidth="850" pageHeight="1100" math="0" shadow="0">
      <root>
        <mxCell id="0" />
        <mxCell id="1" parent="0" />
        <mxCell id="k3BtqlvrcqAW43-1yQA_-1" value="" style="whiteSpace=wrap;html=1;aspect=fixed;" vertex="1" parent="1">
          <mxGeometry x="110" y="190" width="490" height="490" as="geometry" />
        </mxCell>
        <mxCell id="k3BtqlvrcqAW43-1yQA_-16" style="edgeStyle=orthogonalEdgeStyle;rounded=0;orthogonalLoop=1;jettySize=auto;html=1;exitX=1;exitY=0.3333333333333333;exitDx=0;exitDy=0;exitPerimeter=0;entryX=0;entryY=0.5;entryDx=0;entryDy=0;" edge="1" parent="1" source="k3BtqlvrcqAW43-1yQA_-6" target="k3BtqlvrcqAW43-1yQA_-7">
          <mxGeometry relative="1" as="geometry" />
        </mxCell>
        <mxCell id="k3BtqlvrcqAW43-1yQA_-6" value="Supplier&lt;div&gt;&lt;br&gt;&lt;/div&gt;" style="shape=umlActor;verticalLabelPosition=bottom;verticalAlign=top;html=1;outlineConnect=0;" vertex="1" parent="1">
          <mxGeometry x="-100" y="350" width="50" height="90" as="geometry" />
        </mxCell>
        <mxCell id="k3BtqlvrcqAW43-1yQA_-7" value="Signup" style="ellipse;whiteSpace=wrap;html=1;" vertex="1" parent="1">
          <mxGeometry x="290" y="210" width="100" height="60" as="geometry" />
        </mxCell>
        <mxCell id="k3BtqlvrcqAW43-1yQA_-8" value="Add products" style="ellipse;whiteSpace=wrap;html=1;" vertex="1" parent="1">
          <mxGeometry x="280" y="290" width="120" height="80" as="geometry" />
        </mxCell>
        <mxCell id="k3BtqlvrcqAW43-1yQA_-9" value="Stock Requests" style="ellipse;whiteSpace=wrap;html=1;" vertex="1" parent="1">
          <mxGeometry x="300" y="580" width="120" height="80" as="geometry" />
        </mxCell>
        <mxCell id="k3BtqlvrcqAW43-1yQA_-10" value="Update Products" style="ellipse;whiteSpace=wrap;html=1;" vertex="1" parent="1">
          <mxGeometry x="425" y="380" width="120" height="80" as="geometry" />
        </mxCell>
        <mxCell id="k3BtqlvrcqAW43-1yQA_-11" value="view Products" style="ellipse;whiteSpace=wrap;html=1;" vertex="1" parent="1">
          <mxGeometry x="180" y="395" width="120" height="80" as="geometry" />
        </mxCell>
        <mxCell id="k3BtqlvrcqAW43-1yQA_-12" value="History" style="ellipse;whiteSpace=wrap;html=1;" vertex="1" parent="1">
          <mxGeometry x="290" y="480" width="120" height="80" as="geometry" />
        </mxCell>
        <mxCell id="k3BtqlvrcqAW43-1yQA_-17" style="edgeStyle=orthogonalEdgeStyle;rounded=0;orthogonalLoop=1;jettySize=auto;html=1;entryX=1;entryY=0.5;entryDx=0;entryDy=0;" edge="1" parent="1" target="k3BtqlvrcqAW43-1yQA_-7">
          <mxGeometry relative="1" as="geometry">
            <mxPoint x="780" y="290" as="sourcePoint" />
          </mxGeometry>
        </mxCell>
        <mxCell id="k3BtqlvrcqAW43-1yQA_-14" value="admin" style="shape=umlActor;verticalLabelPosition=bottom;verticalAlign=top;html=1;outlineConnect=0;" vertex="1" parent="1">
          <mxGeometry x="780" y="270" width="30" height="60" as="geometry" />
        </mxCell>
        <mxCell id="k3BtqlvrcqAW43-1yQA_-22" value="Product" style="swimlane;fontStyle=1;align=center;verticalAlign=top;childLayout=stackLayout;horizontal=1;startSize=26;horizontalStack=0;resizeParent=1;resizeParentMax=0;resizeLast=0;collapsible=1;marginBottom=0;whiteSpace=wrap;html=1;" vertex="1" parent="1">
          <mxGeometry x="80" y="850" width="630" height="350" as="geometry" />
        </mxCell>
        <mxCell id="k3BtqlvrcqAW43-1yQA_-23" value="-&lt;span style=&quot;background-color:#2f2f2f;padding:0px 0px 0px 2px;&quot;&gt;&lt;span style=&quot;color: rgb(204, 204, 204); font-family: Consolas; font-size: 10pt; white-space: pre;&quot;&gt;&lt;span style=&quot;color:#d9e8f7;&quot;&gt;&lt;/span&gt;&lt;span style=&quot;color: rgb(102, 225, 248); background-color: rgb(27, 98, 145); text-decoration-line: underline; text-decoration-color: rgb(244, 200, 45); text-decoration-style: wavy;&quot;&gt;productName:&lt;/span&gt;&lt;/span&gt;&lt;/span&gt;&lt;div&gt;&lt;span style=&quot;background-color:#2f2f2f;padding:0px 0px 0px 2px;&quot;&gt;&lt;span style=&quot;color: rgb(204, 204, 204); font-family: Consolas; font-size: 10pt; white-space: pre;&quot;&gt;&lt;span style=&quot;color: rgb(102, 225, 248); background-color: rgb(27, 98, 145); text-decoration-line: underline; text-decoration-color: rgb(244, 200, 45); text-decoration-style: wavy;&quot;&gt;;knf;k&lt;/span&gt;&lt;/span&gt;&lt;/span&gt;&lt;/div&gt;&lt;div&gt;&lt;span style=&quot;background-color:#2f2f2f;padding:0px 0px 0px 2px;&quot;&gt;&lt;span style=&quot;color: rgb(204, 204, 204); font-family: Consolas; font-size: 10pt; white-space: pre;&quot;&gt;&lt;span style=&quot;color: rgb(102, 225, 248); background-color: rgb(27, 98, 145); text-decoration-line: underline; text-decoration-color: rgb(244, 200, 45); text-decoration-style: wavy;&quot;&gt;;kd;skd&lt;/span&gt;&lt;/span&gt;&lt;/span&gt;&lt;/div&gt;&lt;div&gt;&lt;span style=&quot;background-color:#2f2f2f;padding:0px 0px 0px 2px;&quot;&gt;&lt;span style=&quot;color: rgb(204, 204, 204); font-family: Consolas; font-size: 10pt; white-space: pre;&quot;&gt;&lt;span style=&quot;color: rgb(102, 225, 248); background-color: rgb(27, 98, 145); text-decoration-line: underline; text-decoration-color: rgb(244, 200, 45); text-decoration-style: wavy;&quot;&gt;;kdf;dsk&lt;/span&gt;&lt;/span&gt;&lt;/span&gt;&lt;/div&gt;" style="text;strokeColor=none;fillColor=none;align=left;verticalAlign=top;spacingLeft=4;spacingRight=4;overflow=hidden;rotatable=0;points=[[0,0.5],[1,0.5]];portConstraint=eastwest;whiteSpace=wrap;html=1;" vertex="1" parent="k3BtqlvrcqAW43-1yQA_-22">
          <mxGeometry y="26" width="630" height="164" as="geometry" />
        </mxCell>
        <mxCell id="k3BtqlvrcqAW43-1yQA_-24" value="" style="line;strokeWidth=1;fillColor=none;align=left;verticalAlign=middle;spacingTop=-1;spacingLeft=3;spacingRight=3;rotatable=0;labelPosition=right;points=[];portConstraint=eastwest;strokeColor=inherit;" vertex="1" parent="k3BtqlvrcqAW43-1yQA_-22">
          <mxGeometry y="190" width="630" height="8" as="geometry" />
        </mxCell>
        <mxCell id="k3BtqlvrcqAW43-1yQA_-25" value=";kmd;knd&lt;div&gt;;kdf;ksdmc&lt;/div&gt;&lt;div&gt;;k df;kd;&lt;/div&gt;&lt;div&gt;&lt;br&gt;&lt;/div&gt;" style="text;strokeColor=none;fillColor=none;align=left;verticalAlign=top;spacingLeft=4;spacingRight=4;overflow=hidden;rotatable=0;points=[[0,0.5],[1,0.5]];portConstraint=eastwest;whiteSpace=wrap;html=1;" vertex="1" parent="k3BtqlvrcqAW43-1yQA_-22">
          <mxGeometry y="198" width="630" height="152" as="geometry" />
        </mxCell>
      </root>
    </mxGraphModel>
  </diagram>
</mxfile>
